<svg xmlns="http://www.w3.org/2000/svg" viewBox="0 0 2560 1000" font-family="-apple-system, 'Segoe UI', Roboto, Helvetica, Arial, sans-serif">
<rect width="2560" height="1000" fill="#eef0f8"/>
<defs>
<clipPath id="cp"><rect x="60" y="110" width="390" height="780" rx="28"/></clipPath>
<clipPath id="cf"><rect x="530" y="110" width="740" height="780" rx="28"/></clipPath>
<clipPath id="ct"><rect x="1350" y="110" width="1150" height="780" rx="28"/></clipPath>
</defs>

<!-- Title block -->
<text x="60" y="44" font-size="30" font-weight="700" fill="#15131f">Comments &amp; markdown</text>
<text x="60" y="72" font-size="18" fill="#66637c">SoftTrack Mobile · design mockup</text>

<!-- Frame labels -->
<text x="60" y="88" font-size="22" font-weight="600" fill="#514e66">Phone · compact (&lt;600dp)</text>
<text x="530" y="88" font-size="22" font-weight="600" fill="#514e66">Foldable · medium (600–839dp)</text>
<text x="1350" y="88" font-size="22" font-weight="600" fill="#514e66">Tablet · expanded (≥840dp)</text>

<!-- Frame shadows + fills -->
<rect x="60" y="115" width="390" height="780" rx="28" fill="#26243a" opacity="0.06"/>
<rect x="530" y="115" width="740" height="780" rx="28" fill="#26243a" opacity="0.06"/>
<rect x="1350" y="115" width="1150" height="780" rx="28" fill="#26243a" opacity="0.06"/>
<rect x="60" y="110" width="390" height="780" rx="28" fill="#ffffff"/>
<rect x="530" y="110" width="740" height="780" rx="28" fill="#ffffff"/>
<rect x="1350" y="110" width="1150" height="780" rx="28" fill="#ffffff"/>

<!-- ============ PHONE ============ -->
<g clip-path="url(#cp)">
  <!-- status bar -->
  <text x="84" y="129" font-size="14" font-weight="600" fill="#514e66">9:41</text>
  <rect x="368" y="124" width="3" height="4" fill="#514e66"/><rect x="373" y="122" width="3" height="6" fill="#514e66"/><rect x="378" y="120" width="3" height="8" fill="#514e66"/><rect x="383" y="118" width="3" height="10" fill="#514e66"/>
  <polygon points="392,128 404,128 398,119" fill="#514e66"/>
  <rect x="406" y="118" width="20" height="10" rx="3" fill="#514e66"/><rect x="427" y="121" width="3" height="5" rx="1" fill="#514e66"/>

  <!-- header -->
  <text x="80" y="174" font-size="20" fill="#514e66">‹</text>
  <text x="255" y="168" font-size="16" font-weight="600" fill="#15131f" text-anchor="middle">Comments</text>
  <text x="255" y="187" font-size="11" fill="#7a7791" text-anchor="middle">ENG-142 · Fix drag ghost offset on Safari</text>
  <line x1="60" y1="200" x2="450" y2="200" stroke="#eeedf5" stroke-width="2"/>

  <!-- comment 1: rendered markdown -->
  <circle cx="94" cy="228" r="14" fill="#4f8cff"/>
  <text x="94" y="232" font-size="11" font-weight="700" fill="#ffffff" text-anchor="middle">AK</text>
  <text x="118" y="226" font-size="13" font-weight="600" fill="#15131f">Amina K.</text>
  <text x="186" y="226" font-size="12" fill="#b6b3c8">2h ago</text>
  <text x="118" y="258" font-size="15" font-weight="700" fill="#15131f">Repro steps</text>
  <rect x="118" y="274" width="16" height="16" rx="4" fill="#12a474"/>
  <text x="126" y="286" font-size="11" font-weight="700" fill="#ffffff" text-anchor="middle">✓</text>
  <text x="142" y="286" font-size="13" fill="#7a7791">Reproduce with two columns scrolled</text>
  <rect x="118" y="300" width="16" height="16" rx="4" fill="#ffffff" stroke="#dedcea" stroke-width="1.5"/>
  <text x="142" y="312" font-size="13" fill="#514e66">Verify ghost stays under pointer</text>
  <rect x="118" y="328" width="92" height="22" rx="11" fill="#f7f6fb" stroke="#eeedf5"/>
  <text x="130" y="343" font-size="11" font-weight="600" fill="#7a7791">2 of 4 tasks</text>
  <text x="118" y="373" font-size="13" fill="#514e66">Offset comes from</text>
  <rect x="240" y="358" width="160" height="22" rx="5" fill="#f7f6fb" stroke="#eeedf5"/>
  <text x="248" y="373" font-size="11" font-family="ui-monospace, 'SF Mono', Menlo, monospace" fill="#514e66">transform: translate()</text>
  <text x="118" y="397" font-size="13" fill="#514e66">applied before layout on Safari.</text>
  <line x1="80" y1="412" x2="430" y2="412" stroke="#eeedf5"/>

  <!-- automation comment -->
  <circle cx="94" cy="438" r="12" fill="#f7f6fb" stroke="#dedcea"/>
  <circle cx="94" cy="438" r="5" stroke="#7a7791" stroke-width="1.5" fill="none"/>
  <rect x="92.5" y="428" width="3" height="4" fill="#7a7791"/>
  <rect x="92.5" y="444" width="3" height="4" fill="#7a7791"/>
  <rect x="84" y="436.5" width="4" height="3" fill="#7a7791"/>
  <rect x="100" y="436.5" width="4" height="3" fill="#7a7791"/>
  <text x="116" y="436" font-size="13" font-style="italic" fill="#7a7791">Automation moved this to In Progress</text>
  <text x="116" y="454" font-size="11" fill="#b6b3c8">1h ago</text>
  <line x1="80" y1="470" x2="430" y2="470" stroke="#eeedf5"/>

  <!-- comment 2 -->
  <circle cx="94" cy="496" r="14" fill="#2fd4a7"/>
  <text x="94" y="500" font-size="11" font-weight="700" fill="#ffffff" text-anchor="middle">DP</text>
  <text x="118" y="494" font-size="13" font-weight="600" fill="#15131f">Dev P.</text>
  <text x="168" y="494" font-size="12" fill="#b6b3c8">45m ago</text>
  <text x="118" y="520" font-size="13" fill="#514e66">Pushed a candidate fix — ghost now anchors</text>
  <text x="118" y="540" font-size="13" fill="#514e66">to the pointer. Verified on Safari 17.4.</text>

  <!-- day divider -->
  <line x1="80" y1="580" x2="225" y2="580" stroke="#eeedf5"/>
  <line x1="285" y1="580" x2="430" y2="580" stroke="#eeedf5"/>
  <text x="255" y="585" font-size="11" fill="#b6b3c8" text-anchor="middle">Today</text>

  <!-- @mention autocomplete popup -->
  <rect x="80" y="632" width="310" height="108" rx="12" fill="#26243a" opacity="0.08"/>
  <rect x="80" y="628" width="310" height="108" rx="12" fill="#ffffff" stroke="#dedcea"/>
  <text x="96" y="652" font-size="11" fill="#b6b3c8">Members matching “@am”</text>
  <rect x="88" y="662" width="294" height="32" rx="8" fill="#f7f6fb"/>
  <circle cx="106" cy="678" r="11" fill="#4f8cff"/>
  <text x="106" y="682" font-size="11" font-weight="700" fill="#ffffff" text-anchor="middle">AK</text>
  <text x="124" y="682" font-size="13" font-weight="600" fill="#15131f">Amina K.</text>
  <text x="202" y="682" font-size="12" fill="#b6b3c8">@amina</text>
  <circle cx="106" cy="712" r="11" fill="#2fd4a7"/>
  <text x="106" y="716" font-size="11" font-weight="700" fill="#ffffff" text-anchor="middle">AD</text>
  <text x="124" y="716" font-size="13" font-weight="600" fill="#15131f">Amir D.</text>
  <text x="192" y="716" font-size="12" fill="#b6b3c8">@amir</text>

  <!-- composer -->
  <circle cx="96" cy="778" r="16" fill="#f7f6fb" stroke="#eeedf5"/>
  <text x="96" y="784" font-size="16" fill="#514e66" text-anchor="middle">+</text>
  <rect x="122" y="754" width="244" height="48" rx="10" fill="#ffffff" stroke="#6342db" stroke-width="2"/>
  <text x="138" y="784" font-size="15" fill="#15131f">@am</text>
  <line x1="174" y1="766" x2="174" y2="790" stroke="#6342db" stroke-width="2"/>
  <circle cx="402" cy="778" r="20" fill="#6342db"/>
  <polygon points="395,769 413,778 395,787" fill="#ffffff"/>

  <!-- bottom nav -->
  <line x1="60" y1="826" x2="450" y2="826" stroke="#eeedf5" stroke-width="2"/>
  <rect x="88" y="838" width="22" height="22" rx="6" fill="#eeedf5" stroke="#7a7791"/>
  <text x="99" y="876" font-size="11" fill="#7a7791" text-anchor="middle">Home</text>
  <rect x="166" y="838" width="22" height="22" rx="6" fill="#6342db"/>
  <text x="177" y="876" font-size="11" font-weight="600" fill="#6342db" text-anchor="middle">Board</text>
  <rect x="244" y="838" width="22" height="22" rx="6" fill="#eeedf5" stroke="#7a7791"/>
  <text x="255" y="876" font-size="11" fill="#7a7791" text-anchor="middle">Search</text>
  <rect x="322" y="838" width="22" height="22" rx="6" fill="#eeedf5" stroke="#7a7791"/>
  <text x="333" y="876" font-size="11" fill="#7a7791" text-anchor="middle">Inbox</text>
  <circle cx="411" cy="849" r="11" fill="#eeedf5" stroke="#7a7791"/>
  <text x="411" y="876" font-size="11" fill="#7a7791" text-anchor="middle">You</text>
</g>

<!-- ============ FOLDABLE ============ -->
<g clip-path="url(#cf)">
  <!-- status bar -->
  <text x="554" y="129" font-size="14" font-weight="600" fill="#514e66">9:41</text>
  <rect x="1188" y="124" width="3" height="4" fill="#514e66"/><rect x="1193" y="122" width="3" height="6" fill="#514e66"/><rect x="1198" y="120" width="3" height="8" fill="#514e66"/><rect x="1203" y="118" width="3" height="10" fill="#514e66"/>
  <polygon points="1212,128 1224,128 1218,119" fill="#514e66"/>
  <rect x="1226" y="118" width="20" height="10" rx="3" fill="#514e66"/><rect x="1247" y="121" width="3" height="5" rx="1" fill="#514e66"/>

  <!-- nav rail -->
  <rect x="530" y="138" width="76" height="752" fill="#f7f6fb"/>
  <line x1="606" y1="138" x2="606" y2="890" stroke="#eeedf5" stroke-width="2"/>
  <rect x="556" y="158" width="24" height="24" rx="7" fill="#6342db"/>
  <rect x="557" y="212" width="22" height="22" rx="6" fill="#eeedf5" stroke="#7a7791"/>
  <text x="568" y="250" font-size="11" fill="#7a7791" text-anchor="middle">Home</text>
  <rect x="557" y="290" width="22" height="22" rx="6" fill="#6342db"/>
  <text x="568" y="328" font-size="11" font-weight="600" fill="#6342db" text-anchor="middle">Board</text>
  <rect x="557" y="368" width="22" height="22" rx="6" fill="#eeedf5" stroke="#7a7791"/>
  <text x="568" y="406" font-size="11" fill="#7a7791" text-anchor="middle">Search</text>
  <rect x="557" y="446" width="22" height="22" rx="6" fill="#eeedf5" stroke="#7a7791"/>
  <text x="568" y="484" font-size="11" fill="#7a7791" text-anchor="middle">Inbox</text>
  <circle cx="568" cy="535" r="11" fill="#eeedf5" stroke="#7a7791"/>
  <text x="568" y="562" font-size="11" fill="#7a7791" text-anchor="middle">You</text>

  <!-- hinge -->
  <line x1="900" y1="112" x2="900" y2="888" stroke="#b6b3c8" stroke-dasharray="4 6" opacity="0.6"/>

  <!-- left pane: issue description + properties -->
  <text x="622" y="172" font-size="12" font-weight="600" fill="#7a7791">ENG-142</text>
  <text x="622" y="198" font-size="17" font-weight="700" fill="#15131f">Fix drag ghost offset</text>
  <text x="622" y="220" font-size="17" font-weight="700" fill="#15131f">on Safari</text>
  <rect x="622" y="240" width="100" height="24" rx="12" fill="#f29d0b" fill-opacity="0.15"/>
  <circle cx="636" cy="252" r="3.5" fill="#f29d0b"/>
  <text x="645" y="256" font-size="11" font-weight="600" fill="#f29d0b">In Progress</text>
  <rect x="730" y="240" width="54" height="24" rx="12" fill="#f2721c" fill-opacity="0.15"/>
  <text x="744" y="256" font-size="11" font-weight="600" fill="#f2721c">High</text>
  <circle cx="806" cy="252" r="11" fill="#4f8cff"/>
  <text x="806" y="256" font-size="11" font-weight="700" fill="#ffffff" text-anchor="middle">AK</text>
  <line x1="622" y1="284" x2="884" y2="284" stroke="#eeedf5"/>
  <text x="622" y="310" font-size="13" font-weight="600" fill="#15131f">Description</text>
  <text x="622" y="332" font-size="12" fill="#514e66">Dragging a card in board view on</text>
  <text x="622" y="350" font-size="12" fill="#514e66">Safari 17 offsets the ghost by the</text>
  <text x="622" y="368" font-size="12" fill="#514e66">container scroll position.</text>
  <line x1="622" y1="392" x2="884" y2="392" stroke="#eeedf5"/>
  <text x="622" y="418" font-size="12" fill="#7a7791">Estimate</text>
  <text x="884" y="418" font-size="12" fill="#514e66" text-anchor="end">3 points</text>
  <text x="622" y="446" font-size="12" fill="#7a7791">Cycle</text>
  <text x="884" y="446" font-size="12" fill="#514e66" text-anchor="end">Cycle 14</text>
  <text x="622" y="474" font-size="12" fill="#7a7791">Labels</text>
  <rect x="836" y="460" width="48" height="20" rx="10" fill="#f2647d" fill-opacity="0.15"/>
  <text x="850" y="474" font-size="11" font-weight="600" fill="#f2647d">bug</text>
  <line x1="622" y1="500" x2="884" y2="500" stroke="#eeedf5"/>
  <text x="622" y="526" font-size="13" font-weight="600" fill="#15131f">Sub-issues</text>
  <text x="884" y="526" font-size="11" fill="#7a7791" text-anchor="end">2 of 4 done</text>
  <rect x="622" y="538" width="262" height="6" rx="3" fill="#eeedf5"/>
  <rect x="622" y="538" width="131" height="6" rx="3" fill="#6342db"/>
  <text x="622" y="580" font-size="13" font-weight="600" fill="#15131f">Links</text>
  <circle cx="630" cy="600" r="7" stroke="#e0424a" stroke-width="2" fill="none"/>
  <line x1="625" y1="595" x2="635" y2="605" stroke="#e0424a" stroke-width="2"/>
  <text x="644" y="604" font-size="12" fill="#514e66">Blocked by</text>
  <text x="714" y="604" font-size="12" font-weight="600" fill="#6342db">ENG-131</text>
  <text x="622" y="646" font-size="13" font-weight="600" fill="#15131f">Development</text>
  <rect x="622" y="658" width="170" height="24" rx="8" fill="#f7f6fb" stroke="#eeedf5"/>
  <text x="632" y="674" font-size="11" font-family="ui-monospace, 'SF Mono', Menlo, monospace" fill="#514e66">eng-142-drag-ghost</text>
  <rect x="622" y="690" width="76" height="24" rx="8" fill="#12a474" fill-opacity="0.15"/>
  <circle cx="635" cy="702" r="3.5" fill="#12a474"/>
  <text x="644" y="706" font-size="11" font-weight="600" fill="#12a474">PR #87</text>
  <text x="622" y="748" font-size="12" font-weight="600" fill="#7a7791">Activity</text>
  <rect x="622" y="762" width="230" height="7" rx="3.5" fill="#eeedf5"/>
  <rect x="622" y="778" width="180" height="7" rx="3.5" fill="#eeedf5"/>
  <rect x="622" y="794" width="210" height="7" rx="3.5" fill="#eeedf5"/>

  <!-- right pane: comment thread -->
  <text x="916" y="172" font-size="15" font-weight="700" fill="#15131f">Comments · 4</text>
  <line x1="900" y1="188" x2="1270" y2="188" stroke="#eeedf5"/>
  <circle cx="930" cy="214" r="13" fill="#4f8cff"/>
  <text x="930" y="218" font-size="11" font-weight="700" fill="#ffffff" text-anchor="middle">AK</text>
  <text x="952" y="212" font-size="13" font-weight="600" fill="#15131f">Amina K.</text>
  <text x="1022" y="212" font-size="11" fill="#b6b3c8">2h ago</text>
  <text x="952" y="244" font-size="14" font-weight="700" fill="#15131f">Repro steps</text>
  <rect x="952" y="258" width="15" height="15" rx="4" fill="#12a474"/>
  <text x="959.5" y="269.5" font-size="11" font-weight="700" fill="#ffffff" text-anchor="middle">✓</text>
  <text x="974" y="270" font-size="12" fill="#7a7791">Reproduce with two columns scrolled</text>
  <rect x="952" y="282" width="15" height="15" rx="4" fill="#ffffff" stroke="#dedcea" stroke-width="1.5"/>
  <text x="974" y="294" font-size="12" fill="#514e66">Verify ghost stays under pointer</text>
  <rect x="952" y="306" width="88" height="20" rx="10" fill="#f7f6fb" stroke="#eeedf5"/>
  <text x="964" y="320" font-size="11" font-weight="600" fill="#7a7791">2 of 4 tasks</text>
  <text x="952" y="352" font-size="12" fill="#514e66">Offset comes from</text>
  <rect x="1064" y="338" width="158" height="20" rx="5" fill="#f7f6fb" stroke="#eeedf5"/>
  <text x="1071" y="352" font-size="11" font-family="ui-monospace, 'SF Mono', Menlo, monospace" fill="#514e66">transform: translate()</text>
  <line x1="916" y1="378" x2="1254" y2="378" stroke="#eeedf5"/>
  <circle cx="930" cy="404" r="11" fill="#f7f6fb" stroke="#dedcea"/>
  <circle cx="930" cy="404" r="4.5" stroke="#7a7791" stroke-width="1.5" fill="none"/>
  <rect x="928.5" y="395" width="3" height="4" fill="#7a7791"/>
  <rect x="928.5" y="409" width="3" height="4" fill="#7a7791"/>
  <rect x="921" y="402.5" width="4" height="3" fill="#7a7791"/>
  <rect x="935" y="402.5" width="4" height="3" fill="#7a7791"/>
  <text x="950" y="402" font-size="12" font-style="italic" fill="#7a7791">Automation moved this to In Progress</text>
  <text x="950" y="418" font-size="11" fill="#b6b3c8">1h ago</text>
  <line x1="916" y1="436" x2="1254" y2="436" stroke="#eeedf5"/>
  <circle cx="930" cy="462" r="13" fill="#2fd4a7"/>
  <text x="930" y="466" font-size="11" font-weight="700" fill="#ffffff" text-anchor="middle">DP</text>
  <text x="952" y="460" font-size="13" font-weight="600" fill="#15131f">Dev P.</text>
  <text x="1004" y="460" font-size="11" fill="#b6b3c8">45m ago</text>
  <text x="952" y="490" font-size="12" fill="#514e66">Pushed a candidate fix — ghost now</text>
  <text x="952" y="508" font-size="12" fill="#514e66">anchors to the pointer. Verified on</text>
  <text x="952" y="526" font-size="12" fill="#514e66">Safari 17.4.</text>
  <circle cx="930" cy="564" r="13" fill="#ffb648"/>
  <text x="930" y="568" font-size="11" font-weight="700" fill="#ffffff" text-anchor="middle">SR</text>
  <text x="952" y="562" font-size="13" font-weight="600" fill="#15131f">Sara R.</text>
  <text x="1008" y="562" font-size="11" fill="#b6b3c8">12m ago</text>
  <text x="952" y="592" font-size="12" fill="#514e66">Nice — retesting on the iPad build now.</text>

  <!-- composer -->
  <rect x="916" y="812" width="274" height="48" rx="10" fill="#ffffff" stroke="#dedcea"/>
  <text x="932" y="842" font-size="14" fill="#b6b3c8">Leave a comment…</text>
  <circle cx="1224" cy="836" r="20" fill="#6342db"/>
  <polygon points="1217,827 1235,836 1217,845" fill="#ffffff"/>
</g>

<!-- ============ TABLET ============ -->
<g clip-path="url(#ct)">
  <!-- status bar -->
  <text x="1374" y="129" font-size="14" font-weight="600" fill="#514e66">9:41</text>
  <rect x="2418" y="124" width="3" height="4" fill="#514e66"/><rect x="2423" y="122" width="3" height="6" fill="#514e66"/><rect x="2428" y="120" width="3" height="8" fill="#514e66"/><rect x="2433" y="118" width="3" height="10" fill="#514e66"/>
  <polygon points="2442,128 2454,128 2448,119" fill="#514e66"/>
  <rect x="2456" y="118" width="20" height="10" rx="3" fill="#514e66"/><rect x="2477" y="121" width="3" height="5" rx="1" fill="#514e66"/>

  <!-- nav rail -->
  <rect x="1350" y="138" width="76" height="752" fill="#f7f6fb"/>
  <line x1="1426" y1="138" x2="1426" y2="890" stroke="#eeedf5" stroke-width="2"/>
  <rect x="1376" y="158" width="24" height="24" rx="7" fill="#6342db"/>
  <rect x="1377" y="212" width="22" height="22" rx="6" fill="#eeedf5" stroke="#7a7791"/>
  <text x="1388" y="250" font-size="11" fill="#7a7791" text-anchor="middle">Home</text>
  <rect x="1377" y="290" width="22" height="22" rx="6" fill="#6342db"/>
  <text x="1388" y="328" font-size="11" font-weight="600" fill="#6342db" text-anchor="middle">Board</text>
  <rect x="1377" y="368" width="22" height="22" rx="6" fill="#eeedf5" stroke="#7a7791"/>
  <text x="1388" y="406" font-size="11" fill="#7a7791" text-anchor="middle">Search</text>
  <rect x="1377" y="446" width="22" height="22" rx="6" fill="#eeedf5" stroke="#7a7791"/>
  <text x="1388" y="484" font-size="11" fill="#7a7791" text-anchor="middle">Inbox</text>
  <circle cx="1388" cy="535" r="11" fill="#eeedf5" stroke="#7a7791"/>
  <text x="1388" y="562" font-size="11" fill="#7a7791" text-anchor="middle">You</text>

  <!-- left region: issue detail -->
  <text x="1450" y="172" font-size="12" font-weight="600" fill="#7a7791">ENG-142</text>
  <rect x="1930" y="158" width="46" height="24" rx="12" fill="#6342db"/>
  <circle cx="1964" cy="170" r="9" fill="#ffffff"/>
  <text x="1450" y="206" font-size="20" font-weight="700" fill="#15131f">Fix drag ghost offset on Safari</text>
  <rect x="1450" y="226" width="110" height="26" rx="13" fill="#f29d0b" fill-opacity="0.15"/>
  <circle cx="1466" cy="239" r="4" fill="#f29d0b"/>
  <text x="1476" y="243" font-size="12" font-weight="600" fill="#f29d0b">In Progress</text>
  <rect x="1568" y="226" width="64" height="26" rx="13" fill="#f2721c" fill-opacity="0.15"/>
  <text x="1584" y="243" font-size="12" font-weight="600" fill="#f2721c">High</text>
  <circle cx="1660" cy="239" r="12" fill="#4f8cff"/>
  <text x="1660" y="243" font-size="11" font-weight="700" fill="#ffffff" text-anchor="middle">AK</text>
  <text x="1680" y="243" font-size="13" fill="#15131f">Amina K.</text>
  <rect x="1770" y="226" width="64" height="26" rx="13" fill="#f7f6fb" stroke="#eeedf5"/>
  <text x="1784" y="243" font-size="12" font-weight="600" fill="#514e66">3 pts</text>
  <line x1="1450" y1="272" x2="1976" y2="272" stroke="#eeedf5"/>

  <text x="1450" y="300" font-size="14" font-weight="600" fill="#15131f">Description</text>
  <text x="1450" y="324" font-size="13" fill="#514e66">Dragging a card in board view on Safari 17 offsets the</text>
  <text x="1450" y="344" font-size="13" fill="#514e66">drag ghost by the container scroll position. Repro with</text>
  <text x="1450" y="364" font-size="13" fill="#514e66">two or more columns scrolled horizontally.</text>

  <text x="1450" y="400" font-size="14" font-weight="600" fill="#15131f">Sub-issues</text>
  <rect x="1690" y="392" width="140" height="6" rx="3" fill="#eeedf5"/>
  <rect x="1690" y="392" width="70" height="6" rx="3" fill="#6342db"/>
  <text x="1976" y="400" font-size="12" fill="#7a7791" text-anchor="end">2 of 4 done</text>
  <rect x="1458" y="414" width="15" height="15" rx="4" fill="#12a474"/>
  <text x="1465.5" y="425.5" font-size="11" font-weight="700" fill="#ffffff" text-anchor="middle">✓</text>
  <text x="1482" y="426" font-size="13" fill="#7a7791">ENG-148 · Correct ghost offset math</text>
  <rect x="1458" y="442" width="15" height="15" rx="4" fill="#12a474"/>
  <text x="1465.5" y="453.5" font-size="11" font-weight="700" fill="#ffffff" text-anchor="middle">✓</text>
  <text x="1482" y="454" font-size="13" fill="#7a7791">ENG-149 · Pointer capture on drag start</text>
  <rect x="1458" y="470" width="15" height="15" rx="4" fill="#ffffff" stroke="#dedcea" stroke-width="1.5"/>
  <text x="1482" y="482" font-size="13" fill="#514e66">ENG-150 · Regression test on Safari</text>
  <rect x="1458" y="498" width="15" height="15" rx="4" fill="#ffffff" stroke="#dedcea" stroke-width="1.5"/>
  <text x="1482" y="510" font-size="13" fill="#514e66">ENG-151 · QA pass on iPad split view</text>

  <text x="1450" y="556" font-size="14" font-weight="600" fill="#15131f">Links</text>
  <circle cx="1459" cy="578" r="8" stroke="#e0424a" stroke-width="2" fill="none"/>
  <line x1="1453.4" y1="572.4" x2="1464.6" y2="583.6" stroke="#e0424a" stroke-width="2"/>
  <text x="1476" y="582" font-size="13" fill="#514e66">Blocked by</text>
  <text x="1550" y="582" font-size="13" font-weight="600" fill="#6342db">ENG-131</text>
  <circle cx="1624" cy="578" r="4" fill="#6f6c86"/>
  <text x="1634" y="582" font-size="12" fill="#7a7791">Todo</text>

  <text x="1450" y="626" font-size="14" font-weight="600" fill="#15131f">Development</text>
  <rect x="1450" y="638" width="190" height="28" rx="8" fill="#f7f6fb" stroke="#eeedf5"/>
  <circle cx="1464" cy="652" r="3.5" stroke="#7a7791" stroke-width="1.5" fill="none"/>
  <text x="1474" y="656" font-size="12" font-family="ui-monospace, 'SF Mono', Menlo, monospace" fill="#514e66">eng-142-drag-ghost</text>
  <rect x="1650" y="638" width="86" height="28" rx="8" fill="#12a474" fill-opacity="0.15"/>
  <circle cx="1664" cy="652" r="4" fill="#12a474"/>
  <text x="1674" y="656" font-size="12" font-weight="600" fill="#12a474">PR #87</text>

  <text x="1450" y="708" font-size="14" font-weight="600" fill="#15131f">Attachments (2)</text>
  <rect x="1450" y="720" width="92" height="62" rx="8" fill="#eeedf5"/>
  <polygon points="1461,776 1478,750 1488,763 1497,748 1530,776" fill="#b6b3c8"/>
  <circle cx="1471" cy="736" r="5" fill="#b6b3c8"/>
  <rect x="1556" y="720" width="92" height="62" rx="8" fill="#eeedf5"/>
  <circle cx="1602" cy="751" r="17" stroke="#b6b3c8" stroke-width="3" fill="none"/>
  <text x="1450" y="824" font-size="12" font-weight="600" fill="#7a7791">Activity</text>
  <rect x="1450" y="838" width="300" height="7" rx="3.5" fill="#eeedf5"/>
  <rect x="1450" y="854" width="220" height="7" rx="3.5" fill="#eeedf5"/>

  <!-- divider between detail and comments -->
  <line x1="2000" y1="110" x2="2000" y2="890" stroke="#eeedf5" stroke-width="2"/>

  <!-- right region: comments -->
  <text x="2024" y="172" font-size="15" font-weight="700" fill="#15131f">Comments · 5</text>
  <line x1="2000" y1="188" x2="2500" y2="188" stroke="#eeedf5"/>

  <!-- comment with autolinked issue id -->
  <circle cx="2038" cy="214" r="13" fill="#2fd4a7"/>
  <text x="2038" y="218" font-size="11" font-weight="700" fill="#ffffff" text-anchor="middle">DP</text>
  <text x="2060" y="212" font-size="13" font-weight="600" fill="#15131f">Dev P.</text>
  <text x="2112" y="212" font-size="11" fill="#b6b3c8">3h ago</text>
  <text x="2060" y="242" font-size="13" fill="#514e66">Likely a regression from</text>
  <text x="2226" y="242" font-size="13" font-weight="600" fill="#6342db">ENG-131</text>
  <text x="2288" y="242" font-size="13" fill="#514e66">— same</text>
  <text x="2060" y="262" font-size="13" fill="#514e66">transform path on Safari.</text>
  <line x1="2024" y1="286" x2="2476" y2="286" stroke="#eeedf5"/>

  <!-- markdown comment -->
  <circle cx="2038" cy="312" r="13" fill="#4f8cff"/>
  <text x="2038" y="316" font-size="11" font-weight="700" fill="#ffffff" text-anchor="middle">AK</text>
  <text x="2060" y="310" font-size="13" font-weight="600" fill="#15131f">Amina K.</text>
  <text x="2132" y="310" font-size="11" fill="#b6b3c8">2h ago</text>
  <text x="2060" y="342" font-size="14" font-weight="700" fill="#15131f">Repro steps</text>
  <rect x="2060" y="356" width="15" height="15" rx="4" fill="#12a474"/>
  <text x="2067.5" y="367.5" font-size="11" font-weight="700" fill="#ffffff" text-anchor="middle">✓</text>
  <text x="2082" y="368" font-size="12" fill="#7a7791">Reproduce with two columns scrolled</text>
  <rect x="2060" y="380" width="15" height="15" rx="4" fill="#ffffff" stroke="#dedcea" stroke-width="1.5"/>
  <text x="2082" y="392" font-size="12" fill="#514e66">Verify ghost stays under pointer</text>
  <rect x="2060" y="404" width="88" height="20" rx="10" fill="#f7f6fb" stroke="#eeedf5"/>
  <text x="2072" y="418" font-size="11" font-weight="600" fill="#7a7791">2 of 4 tasks</text>
  <text x="2060" y="450" font-size="12" fill="#514e66">Offset comes from</text>
  <rect x="2172" y="436" width="158" height="20" rx="5" fill="#f7f6fb" stroke="#eeedf5"/>
  <text x="2179" y="450" font-size="11" font-family="ui-monospace, 'SF Mono', Menlo, monospace" fill="#514e66">transform: translate()</text>
  <line x1="2024" y1="474" x2="2476" y2="474" stroke="#eeedf5"/>

  <!-- automation -->
  <circle cx="2038" cy="500" r="11" fill="#f7f6fb" stroke="#dedcea"/>
  <circle cx="2038" cy="500" r="4.5" stroke="#7a7791" stroke-width="1.5" fill="none"/>
  <rect x="2036.5" y="491" width="3" height="4" fill="#7a7791"/>
  <rect x="2036.5" y="505" width="3" height="4" fill="#7a7791"/>
  <rect x="2029" y="498.5" width="4" height="3" fill="#7a7791"/>
  <rect x="2043" y="498.5" width="4" height="3" fill="#7a7791"/>
  <text x="2058" y="498" font-size="12" font-style="italic" fill="#7a7791">Automation moved this to In Progress</text>
  <text x="2058" y="514" font-size="11" fill="#b6b3c8">1h ago</text>
  <line x1="2024" y1="532" x2="2476" y2="532" stroke="#eeedf5"/>

  <!-- comment -->
  <circle cx="2038" cy="558" r="13" fill="#ffb648"/>
  <text x="2038" y="562" font-size="11" font-weight="700" fill="#ffffff" text-anchor="middle">SR</text>
  <text x="2060" y="556" font-size="13" font-weight="600" fill="#15131f">Sara R.</text>
  <text x="2116" y="556" font-size="11" fill="#b6b3c8">12m ago</text>
  <text x="2060" y="586" font-size="12" fill="#514e66">Nice — retesting on the iPad build now.</text>

  <!-- markdown toolbar -->
  <rect x="2024" y="748" width="34" height="30" rx="8" fill="#f7f6fb" stroke="#eeedf5"/>
  <text x="2041" y="769" font-size="15" font-weight="700" fill="#514e66" text-anchor="middle">B</text>
  <rect x="2066" y="748" width="34" height="30" rx="8" fill="#f7f6fb" stroke="#eeedf5"/>
  <text x="2083" y="769" font-size="15" font-style="italic" fill="#514e66" text-anchor="middle">i</text>
  <rect x="2108" y="748" width="34" height="30" rx="8" fill="#f7f6fb" stroke="#eeedf5"/>
  <text x="2125" y="768" font-size="12" font-family="ui-monospace, 'SF Mono', Menlo, monospace" fill="#514e66" text-anchor="middle">&lt;&gt;</text>
  <rect x="2150" y="748" width="34" height="30" rx="8" fill="#f7f6fb" stroke="#eeedf5"/>
  <rect x="2161" y="757" width="12" height="12" rx="3" stroke="#514e66" stroke-width="1.5" fill="none"/>
  <text x="2167" y="767" font-size="9" font-weight="700" fill="#514e66" text-anchor="middle">✓</text>

  <!-- composer -->
  <rect x="2024" y="792" width="396" height="52" rx="10" fill="#ffffff" stroke="#dedcea"/>
  <text x="2040" y="824" font-size="14" fill="#b6b3c8">Leave a comment… @ to mention</text>
  <circle cx="2452" cy="818" r="22" fill="#6342db"/>
  <polygon points="2444,808 2464,818 2444,828" fill="#ffffff"/>
</g>

<!-- Frame borders on top -->
<rect x="60" y="110" width="390" height="780" rx="28" fill="none" stroke="#dedcea" stroke-width="2"/>
<rect x="530" y="110" width="740" height="780" rx="28" fill="none" stroke="#dedcea" stroke-width="2"/>
<rect x="1350" y="110" width="1150" height="780" rx="28" fill="none" stroke="#dedcea" stroke-width="2"/>

<!-- Footer -->
<text x="1280" y="960" font-size="16" fill="#7a7791" text-anchor="middle">Rendered markdown stays interactive on every size class — task-list checkboxes toggle in place and sync back to the comment source.</text>
</svg>
